<?xml version="1.0" encoding="UTF-8" standalone="no"?>
<!DOCTYPE svg PUBLIC "-//W3C//DTD SVG 1.1//EN" "http://www.w3.org/Graphics/SVG/1.1/DTD/svg11.dtd">
<!-- Created with Vectornator (http://vectornator.io/) -->
<svg height="100.0pt" stroke-miterlimit="10" style="fill-rule:nonzero;clip-rule:evenodd;stroke-linecap:round;stroke-linejoin:round;" version="1.1" viewBox="0 0 100 100" width="100.0pt" xml:space="preserve" xmlns="http://www.w3.org/2000/svg" xmlns:xlink="http://www.w3.org/1999/xlink">
<defs/>
<g id="Layer-1">
<path d="M89.3644 0L28.3833 0C22.845 0.0025094 18.3551 4.48991 18.3494 10.0282L18.3494 18.9613L10.6299 18.9613C5.09341 18.9676 0.606784 23.4542 0.60051 28.9907L0.60051 89.9718C0.606785 95.5081 5.0936 99.9944 10.6299 100L71.611 100C77.1493 99.9975 81.6392 95.5101 81.6449 89.9718L81.6449 81.0387L89.3701 81.0387C94.9066 81.0324 99.3932 76.5458 99.3995 71.0093L99.3995 10.0282C99.3932 4.48973 94.9029 0.00250852 89.3644 0ZM75.3893 89.9718C75.3868 92.0575 73.6967 93.7476 71.611 93.7501L10.6299 93.7501C8.54418 93.7476 6.85402 92.0575 6.85151 89.9718L6.85151 28.9907C6.85402 26.905 8.54418 25.2148 10.6299 25.2123L71.611 25.2123C73.6967 25.2148 75.3868 26.905 75.3893 28.9907L75.3893 89.9718ZM93.1428 71.0093C93.1403 73.095 91.4501 74.7852 89.3644 74.7877L81.6449 74.7877L81.6449 28.9907C81.6392 23.4544 77.1529 18.9676 71.6167 18.9613L24.6107 18.9613L24.6107 10.0282C24.6132 7.94253 26.3033 6.25237 28.389 6.24986L89.3644 6.24986C91.4501 6.25237 93.1403 7.94253 93.1428 10.0282L93.1428 71.0093Z" fill="#000000" fill-rule="nonzero" opacity="1" stroke="none"/>
</g>
</svg>
