<?xml version="1.0" encoding="UTF-8" standalone="no"?>
<!DOCTYPE svg PUBLIC "-//W3C//DTD SVG 1.1//EN" "http://www.w3.org/Graphics/SVG/1.1/DTD/svg11.dtd">
<!-- Created with Vectornator (http://vectornator.io/) -->
<svg height="100.0pt" stroke-miterlimit="10" style="fill-rule:nonzero;clip-rule:evenodd;stroke-linecap:round;stroke-linejoin:round;" version="1.1" viewBox="0 0 100 100" width="100.0pt" xml:space="preserve" xmlns="http://www.w3.org/2000/svg" xmlns:xlink="http://www.w3.org/1999/xlink">
<defs/>
<clipPath id="ArtboardFrame">
<rect height="100" width="100" x="0" y="0"/>
</clipPath>
<g clip-path="url(#ArtboardFrame)" id="Layer-1">
<g opacity="1">
<path d="M46.8465 34.2857C46.8465 35.0501 46.7948 35.8144 46.6916 36.5788C46.7329 36.2999 46.7639 36.0313 46.8052 35.7524C46.5986 37.1779 46.2267 38.5723 45.669 39.9047C45.7723 39.6568 45.8756 39.4089 45.9789 39.161C45.5657 40.1423 45.0596 41.0926 44.4708 41.9809C44.3159 42.2081 44.1609 42.425 44.006 42.6419C43.6961 43.0758 44.1919 42.4663 44.2022 42.394C44.1816 42.487 44.0163 42.6316 43.944 42.7142C43.6032 43.1274 43.2313 43.5302 42.8491 43.9124C42.4876 44.2739 42.0951 44.6251 41.7026 44.9557C41.5993 45.0383 41.496 45.1209 41.3824 45.2139C41.1035 45.4411 42.0228 44.7387 41.6303 45.0176C41.4134 45.1726 41.1965 45.3378 40.9692 45.4824C40.0603 46.0919 39.0997 46.6083 38.0978 47.0318C38.3457 46.9285 38.5935 46.8252 38.8414 46.7219C37.509 47.2694 36.1146 47.6516 34.6892 47.8581C34.968 47.8168 35.2366 47.7858 35.5155 47.7445C33.9868 47.9511 32.4581 47.9511 30.9294 47.7445C31.2082 47.7858 31.4768 47.8168 31.7557 47.8581C30.3303 47.6516 28.9358 47.2797 27.6034 46.7219C27.8513 46.8252 28.0992 46.9285 28.3471 47.0318C27.3658 46.6186 26.4156 46.1125 25.5272 45.5238C25.3 45.3688 25.0831 45.2139 24.8662 45.0589C24.4324 44.7491 25.0418 45.2449 25.1141 45.2552C25.0211 45.2345 24.8765 45.0693 24.7939 44.997C24.3807 44.6561 23.9779 44.2843 23.5957 43.9021C23.2342 43.5406 22.883 43.1481 22.5525 42.7556C22.4698 42.6523 22.3872 42.549 22.2942 42.4354C22.067 42.1565 22.7694 43.0758 22.4905 42.6833C22.3356 42.4663 22.1703 42.2494 22.0257 42.0222C21.4163 41.1132 20.8998 40.1526 20.4763 39.1507C20.5796 39.3986 20.6829 39.6465 20.7862 39.8944C20.2388 38.5619 19.8566 37.1675 19.65 35.7421C19.6913 36.021 19.7223 36.2895 19.7636 36.5684C19.557 35.0397 19.557 33.511 19.7636 31.9823C19.7223 32.2612 19.6913 32.5298 19.65 32.8086C19.8566 31.3832 20.2284 29.9888 20.7862 28.6564C20.6829 28.9042 20.5796 29.1521 20.4763 29.4C20.8895 28.4188 21.3956 27.4685 21.9844 26.5802C22.1393 26.353 22.2942 26.1361 22.4492 25.9191C22.7591 25.4853 22.2633 26.0947 22.2529 26.167C22.2736 26.0741 22.4389 25.9295 22.5112 25.8468C22.852 25.4337 23.2239 25.0308 23.606 24.6487C23.9676 24.2871 24.3601 23.936 24.7526 23.6054C24.8559 23.5228 24.9591 23.4402 25.0728 23.3472C25.3517 23.12 24.4324 23.8223 24.8249 23.5434C25.0418 23.3885 25.2587 23.2232 25.4859 23.0786C26.3949 22.4692 27.3555 21.9528 28.3574 21.5293C28.1095 21.6326 27.8616 21.7359 27.6137 21.8391C28.9462 21.2917 30.3406 20.9095 31.766 20.7029C31.4871 20.7443 31.2186 20.7753 30.9397 20.8166C32.4684 20.61 33.9971 20.61 35.5258 20.8166C35.2469 20.7753 34.9784 20.7443 34.6995 20.7029C36.1249 20.9095 37.5193 21.2814 38.8518 21.8391C38.6039 21.7359 38.356 21.6326 38.1081 21.5293C39.0893 21.9424 40.0396 22.4486 40.9279 23.0373C41.1552 23.1923 41.3721 23.3472 41.589 23.5021C42.0228 23.812 41.4134 23.3162 41.3411 23.3059C41.434 23.3265 41.5787 23.4918 41.6613 23.5641C42.0745 23.905 42.4773 24.2768 42.8595 24.659C43.221 25.0205 43.5722 25.413 43.9027 25.8055C43.9853 25.9088 44.068 26.0121 44.1609 26.1257C44.3882 26.4046 43.6858 25.4853 43.9647 25.8778C44.1196 26.0947 44.2849 26.3116 44.4295 26.5389C45.0389 27.4478 45.5554 28.4085 45.9789 29.4104C45.8756 29.1625 45.7723 28.9146 45.669 28.6667C46.2164 29.9991 46.5986 31.3936 46.8052 32.819C46.7639 32.5401 46.7329 32.2715 46.6916 31.9926C46.7845 32.757 46.8362 33.5214 46.8465 34.2857C46.8568 35.9074 48.2719 37.4567 49.9452 37.3844C51.6185 37.3121 53.0543 36.021 53.0439 34.2857C53.0233 30.2883 51.8251 26.2187 49.4701 22.9547C47.0324 19.5667 43.7684 17.0671 39.8537 15.6107C32.3135 12.8219 23.2342 15.2595 18.1213 21.4673C15.3944 24.7829 13.7831 28.6977 13.4525 32.9842C13.1427 36.9506 14.1652 41.0822 16.2207 44.4805C18.2349 47.8065 21.2717 50.6367 24.8352 52.2273C28.7912 54.0039 33.0468 54.5204 37.3127 53.6734C45.0596 52.1447 51.5256 45.5031 52.7341 37.684C52.9097 36.5581 53.0336 35.4322 53.0439 34.2857C53.0543 32.664 51.6185 31.1147 49.9452 31.187C48.2513 31.2696 46.8465 32.5504 46.8465 34.2857Z" fill="#000000" fill-rule="nonzero" opacity="1" stroke="none"/>
<path d="M60.233 68.1238C60.233 72.2451 60.233 76.3664 60.233 80.4877C60.233 81.2418 60.264 82.0061 60.1814 82.7601C60.2227 82.4812 60.2537 82.2127 60.295 81.9338C60.2123 82.4812 60.0781 83.0184 59.8715 83.5348C59.9748 83.2869 60.0781 83.039 60.1814 82.7911C60.0264 83.163 59.8405 83.5245 59.6133 83.8653C59.5616 83.9376 59.51 84.01 59.4583 84.0926C59.1898 84.4954 59.9025 83.5761 59.6546 83.8344C59.5203 83.979 59.3963 84.1339 59.2517 84.2785C59.1278 84.4025 58.9832 84.5161 58.8592 84.64C58.4771 84.9912 59.3757 84.2785 59.1175 84.4438C59.0452 84.4954 58.9728 84.5471 58.9005 84.5987C58.539 84.8363 58.1672 85.0325 57.7643 85.1978C58.0122 85.0945 58.2601 84.9912 58.508 84.8879C57.9916 85.0945 57.4648 85.2391 56.907 85.3114C57.1859 85.2701 57.4545 85.2391 57.7334 85.1978C57.0826 85.2804 56.4319 85.2494 55.7812 85.2494C54.6553 85.2494 53.5397 85.2494 52.4139 85.2494C48.6128 85.2494 44.8117 85.2494 41.0106 85.2494C36.3728 85.2494 31.7454 85.2494 27.1076 85.2494C23.1309 85.2494 19.1439 85.2494 15.1672 85.2494C13.3183 85.2494 11.4797 85.2598 9.63078 85.2494C9.33123 85.2494 9.04202 85.2288 8.74247 85.1978C9.02136 85.2391 9.28992 85.2701 9.5688 85.3114C9.02136 85.2288 8.48425 85.0945 7.96779 84.8879C8.21569 84.9912 8.46359 85.0945 8.71149 85.1978C8.33964 85.0429 7.97812 84.8569 7.63726 84.6297C7.56496 84.5781 7.49265 84.5264 7.41002 84.4748C7.00719 84.2062 7.92648 84.9189 7.66825 84.671C7.52364 84.5367 7.36871 84.4128 7.2241 84.2682C7.10015 84.1442 6.98653 83.9996 6.86258 83.8757C6.51139 83.4935 7.2241 84.3921 7.05883 84.1339C7.00719 84.0616 6.95554 83.9893 6.9039 83.917C6.66633 83.5555 6.47007 83.1836 6.30481 82.7808C6.4081 83.0287 6.51139 83.2766 6.61468 83.5245C6.4081 83.008 6.26349 82.4812 6.19119 81.9235C6.23251 82.2024 6.26349 82.4709 6.30481 82.7498C6.22218 82.0371 6.25316 81.3141 6.25316 80.6014C6.25316 79.3825 6.25316 78.1534 6.25316 76.9345C6.25316 74.3109 6.25316 71.677 6.25316 69.0534C6.25316 67.8346 6.27382 66.6158 6.42876 65.3969C6.38744 65.6758 6.35645 65.9444 6.31514 66.2233C6.56304 64.426 7.03817 62.67 7.73022 60.9864C7.62693 61.2343 7.52364 61.4822 7.42035 61.7301C7.7922 60.8418 8.22602 59.9742 8.72182 59.1478C8.96971 58.7347 9.22794 58.3318 9.50683 57.9393C9.64111 57.7534 9.77538 57.5675 9.90966 57.3919C10.2092 56.989 9.51716 57.8877 9.7444 57.5985C9.82703 57.4952 9.89933 57.4022 9.98197 57.2989C10.5707 56.5759 11.2111 55.8942 11.8928 55.2641C12.244 54.9336 12.6056 54.6237 12.9774 54.3241C13.0807 54.2415 13.4525 53.9523 13.0187 54.2828C12.5642 54.634 12.9877 54.3035 13.0704 54.2518C13.2769 54.0969 13.4835 53.9523 13.6901 53.8077C12.4403 53.6424 11.1905 53.4875 9.93032 53.3222C14.1652 58.6004 20.373 62.4118 27.0146 63.7649C34.152 65.2213 41.6406 64.1368 48.0137 60.5836C51.2983 58.745 54.2731 56.2557 56.6178 53.3222C55.368 53.4875 54.1182 53.6424 52.858 53.8077C53.0646 53.9523 53.2712 54.0969 53.4778 54.2415C53.5604 54.3035 53.643 54.3655 53.7153 54.4274C52.9613 53.8697 53.3332 54.1382 53.5088 54.2725C53.8806 54.572 54.2421 54.8819 54.5933 55.2124C55.2957 55.8632 55.9464 56.5552 56.5558 57.2989C56.6178 57.3816 56.6798 57.4539 56.7418 57.5365C57.1033 57.9806 56.3802 57.051 56.5765 57.3299C56.7108 57.5158 56.8451 57.6914 56.9793 57.8774C57.2582 58.2699 57.5164 58.6727 57.7643 59.0859C58.2808 59.9328 58.7249 60.8211 59.1071 61.7301C59.0038 61.4822 58.9005 61.2343 58.7973 60.9864C59.4996 62.67 59.9644 64.426 60.2123 66.2233C60.171 65.9444 60.14 65.6758 60.0987 65.3969C60.171 66.3059 60.233 67.2148 60.233 68.1238C60.2433 69.7455 61.6584 71.2948 63.3317 71.2225C65.005 71.1502 66.4408 69.8591 66.4305 68.1238C66.4098 62.04 64.0444 56.1421 59.8405 51.7315C58.6733 50.5024 57.3409 49.4282 55.9464 48.4675C54.9238 47.7652 52.9923 47.9511 52.1866 48.953C51.4946 49.8207 50.7509 50.647 49.9556 51.4217C49.5734 51.8038 49.1705 52.1654 48.7574 52.5269C48.5405 52.7128 48.3236 52.8987 48.1066 53.0743C48.0034 53.157 47.9001 53.2396 47.8071 53.3119C47.3423 53.6837 48.4268 52.8471 47.9414 53.2086C46.1338 54.5411 44.2229 55.6669 42.1571 56.5449C42.405 56.4416 42.6529 56.3383 42.9008 56.235C40.6904 57.1646 38.3766 57.7844 36.0009 58.1149C36.2798 58.0736 36.5484 58.0426 36.8273 58.0013C34.4309 58.3112 32.0036 58.3112 29.6072 58.0013C29.8861 58.0426 30.1547 58.0736 30.4336 58.1149C28.0579 57.7947 25.7442 57.1646 23.5337 56.235C23.7816 56.3383 24.0295 56.4416 24.2774 56.5449C22.2219 55.6669 20.2801 54.5411 18.4931 53.2086C18.08 52.8987 18.9786 53.5908 18.6894 53.3635C18.5861 53.2809 18.4828 53.1983 18.3898 53.126C18.1729 52.9504 17.956 52.7645 17.7391 52.5785C17.3259 52.2273 16.9334 51.8555 16.5409 51.4836C15.7249 50.6883 14.9709 49.8516 14.2582 48.9633C13.845 48.4469 13.091 48.1887 12.4816 48.106C11.8412 48.0234 11.0562 48.0957 10.5087 48.4779C7.33772 50.678 4.6315 53.5391 2.82391 56.9684C1.00598 60.408 0.0350502 64.2504 0.0247212 68.1445C0.0143921 71.6047 0.0247212 75.065 0.0247212 78.5355C0.0247212 79.7854-0.0372534 81.0455 0.0350502 82.285C0.26229 86.4889 3.25773 90.414 7.49265 91.2506C9.50683 91.6535 11.6656 91.4882 13.7108 91.4882C17.3983 91.4882 21.0857 91.4882 24.7732 91.4882C29.349 91.4882 33.9248 91.4882 38.5006 91.4882C42.5289 91.4882 46.5573 91.4882 50.5856 91.4882C52.6308 91.4882 54.6759 91.4882 56.7211 91.4882C59.51 91.4882 62.3298 90.3314 64.1167 88.1416C65.5525 86.3753 66.3891 84.2992 66.4305 82.0061C66.4408 81.6549 66.4305 81.2934 66.4305 80.9422C66.4305 77.0068 66.4305 73.0818 66.4305 69.1464C66.4305 68.8159 66.4305 68.4853 66.4305 68.1548C66.4305 66.5331 65.005 64.9838 63.3317 65.0561C61.6481 65.1077 60.233 66.3885 60.233 68.1238Z" fill="#000000" fill-rule="nonzero" opacity="1" stroke="none"/>
<path d="M82.7814 25.3407C82.7814 25.9605 82.7401 26.5802 82.6575 27.1999C82.6988 26.9211 82.7298 26.6525 82.7711 26.3736C82.6058 27.5718 82.2856 28.7287 81.8311 29.8442C81.9344 29.5963 82.0377 29.3484 82.141 29.1005C81.8001 29.8958 81.3973 30.6499 80.9222 31.3729C80.7982 31.5588 80.6639 31.7447 80.54 31.9307C80.2611 32.3232 80.9738 31.4039 80.7362 31.6828C80.6639 31.7654 80.5916 31.8584 80.5193 31.941C80.2508 32.2715 79.9616 32.5814 79.662 32.8809C79.3625 33.1805 79.0423 33.4697 78.7221 33.7383C78.6498 33.8002 78.5775 33.8519 78.5155 33.9035C78.1023 34.2444 79.0319 33.5214 78.7737 33.7073C78.5878 33.8312 78.4122 33.9758 78.2263 34.0998C77.4929 34.5956 76.7079 35.0087 75.9022 35.3496C76.1501 35.2463 76.398 35.143 76.6459 35.0397C75.5304 35.5045 74.3735 35.8144 73.1753 35.9797C73.4542 35.9384 73.7228 35.9074 74.0017 35.8661C72.7622 36.021 71.5227 36.021 70.2935 35.8661C70.5724 35.9074 70.841 35.9384 71.1199 35.9797C69.9217 35.8144 68.7648 35.4942 67.6493 35.0397C67.8972 35.143 68.1451 35.2463 68.393 35.3496C67.5976 35.0087 66.8436 34.6059 66.1206 34.1308C65.9347 34.0068 65.7487 33.8725 65.5628 33.7486C65.1703 33.4697 66.0896 34.1824 65.8107 33.9448C65.7281 33.8725 65.6351 33.8002 65.5525 33.7279C65.2219 33.4594 64.9121 33.1702 64.6125 32.8706C64.313 32.5711 64.0238 32.2509 63.7552 31.9307C63.6932 31.8584 63.6416 31.7861 63.59 31.7241C63.2491 31.3109 63.9721 32.2405 63.7862 31.9823C63.6623 31.7964 63.5176 31.6208 63.3937 31.4349C62.8979 30.7015 62.4847 29.9165 62.1439 29.1108C62.2472 29.3587 62.3505 29.6066 62.4538 29.8545C61.9889 28.739 61.6791 27.5821 61.5138 26.384C61.5551 26.6628 61.5861 26.9314 61.6274 27.2103C61.4725 25.9708 61.4725 24.7313 61.6274 23.5021C61.5861 23.781 61.5551 24.0496 61.5138 24.3285C61.6791 23.1303 61.9993 21.9734 62.4538 20.8579C62.3505 21.1058 62.2472 21.3537 62.1439 21.6016C62.4847 20.8062 62.8876 20.0522 63.3627 19.3292C63.4867 19.1433 63.6209 18.9573 63.7449 18.7714C64.0238 18.3789 63.3111 19.2982 63.5486 19.0193C63.6209 18.9367 63.6932 18.8437 63.7655 18.7611C64.0341 18.4305 64.3233 18.1207 64.6229 17.8211C64.9224 17.5216 65.2426 17.2324 65.5628 16.9638C65.6351 16.9018 65.7074 16.8502 65.7694 16.7986C66.1826 16.4577 65.2529 17.1807 65.5112 16.9948C65.6971 16.8709 65.8727 16.7262 66.0586 16.6023C66.792 16.1065 67.577 15.6933 68.3827 15.3525C68.1348 15.4558 67.8869 15.5591 67.639 15.6624C68.7545 15.1975 69.9114 14.8877 71.1095 14.7224C70.8306 14.7637 70.5621 14.7947 70.2832 14.836C71.5227 14.6811 72.7622 14.6811 73.9913 14.836C73.7125 14.7947 73.4439 14.7637 73.165 14.7224C74.3632 14.8877 75.5201 15.2079 76.6356 15.6624C76.3877 15.5591 76.1398 15.4558 75.8919 15.3525C76.6872 15.6933 77.4413 16.0962 78.1643 16.5713C78.3502 16.6953 78.5361 16.8295 78.7221 16.9535C79.1146 17.2324 78.1953 16.5197 78.4742 16.7572C78.5568 16.8295 78.6498 16.9018 78.7324 16.9741C79.0629 17.2427 79.3728 17.5319 79.6723 17.8315C79.9719 18.131 80.2611 18.4512 80.5297 18.7714C80.5916 18.8437 80.6433 18.916 80.6949 18.978C81.0358 19.3912 80.3128 18.4615 80.4987 18.7198C80.6226 18.9057 80.7672 19.0813 80.8912 19.2672C81.387 20.0006 81.8001 20.7856 82.141 21.5913C82.0377 21.3434 81.9344 21.0955 81.8311 20.8476C82.2959 21.9631 82.6058 23.12 82.7711 24.3181C82.7298 24.0392 82.6988 23.7707 82.6575 23.4918C82.7298 24.1012 82.7711 24.721 82.7814 25.3407C82.7917 26.9624 84.1965 28.5117 85.8801 28.4394C87.5534 28.3671 88.9892 27.076 88.9789 25.3407C88.9582 21.9528 87.9563 18.4925 85.9628 15.7347C83.8556 12.8115 81.0668 10.6734 77.6892 9.43391C71.3161 7.08921 63.59 9.17568 59.2827 14.4125C56.9587 17.2427 55.5952 20.5377 55.2957 24.1942C55.0168 27.5925 55.9051 31.1457 57.6714 34.0481C59.3654 36.837 61.927 39.2333 64.9121 40.5761C68.3207 42.1048 71.9565 42.5593 75.6337 41.8259C82.172 40.5348 87.6877 34.8951 88.7103 28.2948C88.8652 27.3136 88.9789 26.3323 88.9892 25.3304C88.9995 23.7087 87.5534 22.1594 85.8905 22.2317C84.1862 22.3246 82.7814 23.6054 82.7814 25.3407Z" fill="#000000" fill-rule="nonzero" opacity="1" stroke="none"/>
<path d="M63.0219 49.0253C70.7893 52.0931 80.1475 50.9259 86.8717 45.9576C88.669 44.6355 90.3113 43.1584 91.7161 41.4128C90.4662 41.578 89.2164 41.733 87.9563 41.8982C88.1215 42.0119 88.2868 42.1358 88.4521 42.2494C88.8859 42.5593 87.8013 41.7227 88.4211 42.2288C88.731 42.487 89.0408 42.7452 89.33 43.0241C89.8775 43.5406 90.3939 44.088 90.8794 44.6768C91.3855 45.2965 90.5489 44.212 90.8588 44.6458C90.9724 44.811 91.0963 44.966 91.2099 45.1416C91.4062 45.4308 91.6024 45.7303 91.7884 46.0299C92.2119 46.7219 92.5734 47.4553 92.8936 48.199C92.7903 47.9511 92.687 47.7032 92.5837 47.4553C93.1621 48.8497 93.5546 50.2958 93.7612 51.7935C93.7199 51.5146 93.6889 51.2461 93.6476 50.9672C93.8748 52.7748 93.7922 54.6134 93.7922 56.4313C93.7922 58.6933 93.7922 60.9451 93.7922 63.2072C93.7922 63.8889 93.8232 64.5913 93.7406 65.2627C93.7819 64.9838 93.8129 64.7152 93.8542 64.4363C93.7819 64.8908 93.6683 65.335 93.4927 65.7688C93.596 65.5209 93.6993 65.273 93.8025 65.0251C93.6786 65.3143 93.534 65.5932 93.3584 65.8617C92.9556 66.4918 93.7819 65.3969 93.441 65.7791C93.3377 65.8927 93.2344 66.0167 93.1208 66.12C93.0072 66.2336 92.8936 66.3369 92.78 66.4402C92.3875 66.7914 93.4823 65.9857 92.9246 66.3162C92.6354 66.4918 92.3461 66.6571 92.0363 66.7914C92.2842 66.6881 92.5321 66.5848 92.78 66.4815C92.3461 66.6571 91.9123 66.7707 91.4475 66.843C91.7264 66.8017 91.995 66.7707 92.2738 66.7294C91.5198 66.8223 90.7348 66.781 89.9808 66.781C88.5244 66.781 87.068 66.781 85.6116 66.781C82.1926 66.781 78.784 66.781 75.3651 66.781C74.5698 66.781 73.7744 66.781 72.9894 66.781C71.3678 66.781 69.8184 68.2064 69.8907 69.8798C69.963 71.5634 71.2541 72.9785 72.9894 72.9785C75.5717 72.9785 78.154 72.9785 80.7362 72.9785C84.1242 72.9785 87.5225 72.9785 90.9104 72.9785C91.1273 72.9785 91.3442 72.9785 91.5715 72.9785C93.6476 72.9578 95.4862 72.2038 97.0769 70.9127C98.43 69.8178 99.4732 68.0825 99.7934 66.3679C99.938 65.5725 100 64.7978 100 64.0025C100 60.6146 100 57.2266 100 53.8283C100 51.4733 99.7418 49.108 98.9774 46.8769C97.8619 43.6232 95.9717 40.6174 93.3894 38.3347C92.6663 37.6943 91.8917 37.0952 91.0963 36.5478C90.0737 35.8454 88.1422 36.0313 87.3365 37.0332C86.7684 37.7356 86.1693 38.407 85.5289 39.0371C85.1984 39.3573 84.8576 39.6775 84.5064 39.977C84.3308 40.132 84.1552 40.2766 83.9796 40.4212C83.8969 40.4832 83.8143 40.5451 83.742 40.6174C83.3495 40.9376 84.2378 40.2456 83.9383 40.4625C82.4509 41.5574 80.8705 42.487 79.1662 43.21C79.4141 43.1067 79.662 43.0035 79.9099 42.9002C78.092 43.6542 76.1914 44.1706 74.2392 44.4392C74.5181 44.3979 74.7867 44.3669 75.0656 44.3256C73.0721 44.5838 71.0579 44.5735 69.054 44.3153C69.3329 44.3566 69.6015 44.3876 69.8804 44.4289C68.0934 44.181 66.3581 43.7162 64.6745 43.0551C63.9721 42.7762 62.9082 43.0035 62.2885 43.365C61.6481 43.7368 61.0283 44.4805 60.8631 45.2139C60.6875 46.0092 60.7185 46.8975 61.1729 47.5999C61.6378 48.3126 62.2368 48.7051 63.0219 49.0253L63.0219 49.0253Z" fill="#000000" fill-rule="nonzero" opacity="1" stroke="none"/>
<path d="M46.8465 34.2857C46.8465 35.0501 46.7948 35.8144 46.6916 36.5788C46.7329 36.2999 46.7639 36.0313 46.8052 35.7524C46.5986 37.1779 46.2267 38.5723 45.669 39.9047C45.7723 39.6568 45.8756 39.4089 45.9789 39.161C45.5657 40.1423 45.0596 41.0926 44.4708 41.9809C44.3159 42.2081 44.1609 42.425 44.006 42.6419C43.6961 43.0758 44.1919 42.4663 44.2022 42.394C44.1816 42.487 44.0163 42.6316 43.944 42.7142C43.6032 43.1274 43.2313 43.5302 42.8491 43.9124C42.4876 44.2739 42.0951 44.6251 41.7026 44.9557C41.5993 45.0383 41.496 45.1209 41.3824 45.2139C41.1035 45.4411 42.0228 44.7387 41.6303 45.0176C41.4134 45.1726 41.1965 45.3378 40.9692 45.4824C40.0603 46.0919 39.0997 46.6083 38.0978 47.0318C38.3457 46.9285 38.5935 46.8252 38.8414 46.7219C37.509 47.2694 36.1146 47.6516 34.6892 47.8581C34.968 47.8168 35.2366 47.7858 35.5155 47.7445C33.9868 47.9511 32.4581 47.9511 30.9294 47.7445C31.2082 47.7858 31.4768 47.8168 31.7557 47.8581C30.3303 47.6516 28.9358 47.2797 27.6034 46.7219C27.8513 46.8252 28.0992 46.9285 28.3471 47.0318C27.3658 46.6186 26.4156 46.1125 25.5272 45.5238C25.3 45.3688 25.0831 45.2139 24.8662 45.0589C24.4324 44.7491 25.0418 45.2449 25.1141 45.2552C25.0211 45.2345 24.8765 45.0693 24.7939 44.997C24.3807 44.6561 23.9779 44.2843 23.5957 43.9021C23.2342 43.5406 22.883 43.1481 22.5525 42.7556C22.4698 42.6523 22.3872 42.549 22.2942 42.4354C22.067 42.1565 22.7694 43.0758 22.4905 42.6833C22.3356 42.4663 22.1703 42.2494 22.0257 42.0222C21.4163 41.1132 20.8998 40.1526 20.4763 39.1507C20.5796 39.3986 20.6829 39.6465 20.7862 39.8944C20.2388 38.5619 19.8566 37.1675 19.65 35.7421C19.6913 36.021 19.7223 36.2895 19.7636 36.5684C19.557 35.0397 19.557 33.511 19.7636 31.9823C19.7223 32.2612 19.6913 32.5298 19.65 32.8086C19.8566 31.3832 20.2284 29.9888 20.7862 28.6564C20.6829 28.9042 20.5796 29.1521 20.4763 29.4C20.8895 28.4188 21.3956 27.4685 21.9844 26.5802C22.1393 26.353 22.2942 26.1361 22.4492 25.9191C22.7591 25.4853 22.2633 26.0947 22.2529 26.167C22.2736 26.0741 22.4389 25.9295 22.5112 25.8468C22.852 25.4337 23.2239 25.0308 23.606 24.6487C23.9676 24.2871 24.3601 23.936 24.7526 23.6054C24.8559 23.5228 24.9591 23.4402 25.0728 23.3472C25.3517 23.12 24.4324 23.8223 24.8249 23.5434C25.0418 23.3885 25.2587 23.2232 25.4859 23.0786C26.3949 22.4692 27.3555 21.9528 28.3574 21.5293C28.1095 21.6326 27.8616 21.7359 27.6137 21.8391C28.9462 21.2917 30.3406 20.9095 31.766 20.7029C31.4871 20.7443 31.2186 20.7753 30.9397 20.8166C32.4684 20.61 33.9971 20.61 35.5258 20.8166C35.2469 20.7753 34.9784 20.7443 34.6995 20.7029C36.1249 20.9095 37.5193 21.2814 38.8518 21.8391C38.6039 21.7359 38.356 21.6326 38.1081 21.5293C39.0893 21.9424 40.0396 22.4486 40.9279 23.0373C41.1552 23.1923 41.3721 23.3472 41.589 23.5021C42.0228 23.812 41.4134 23.3162 41.3411 23.3059C41.434 23.3265 41.5787 23.4918 41.6613 23.5641C42.0745 23.905 42.4773 24.2768 42.8595 24.659C43.221 25.0205 43.5722 25.413 43.9027 25.8055C43.9853 25.9088 44.068 26.0121 44.1609 26.1257C44.3882 26.4046 43.6858 25.4853 43.9647 25.8778C44.1196 26.0947 44.2849 26.3116 44.4295 26.5389C45.0389 27.4478 45.5554 28.4085 45.9789 29.4104C45.8756 29.1625 45.7723 28.9146 45.669 28.6667C46.2164 29.9991 46.5986 31.3936 46.8052 32.819C46.7639 32.5401 46.7329 32.2715 46.6916 31.9926C46.7845 32.757 46.8362 33.5214 46.8465 34.2857C46.8568 35.9074 48.2719 37.4567 49.9452 37.3844C51.6185 37.3121 53.0543 36.021 53.0439 34.2857C53.0233 30.2883 51.8251 26.2187 49.4701 22.9547C47.0324 19.5667 43.7684 17.0671 39.8537 15.6107C32.3135 12.8219 23.2342 15.2595 18.1213 21.4673C15.3944 24.7829 13.7831 28.6977 13.4525 32.9842C13.1427 36.9506 14.1652 41.0822 16.2207 44.4805C18.2349 47.8065 21.2717 50.6367 24.8352 52.2273C28.7912 54.0039 33.0468 54.5204 37.3127 53.6734C45.0596 52.1447 51.5256 45.5031 52.7341 37.684C52.9097 36.5581 53.0336 35.4322 53.0439 34.2857C53.0543 32.664 51.6185 31.1147 49.9452 31.187C48.2513 31.2696 46.8465 32.5504 46.8465 34.2857Z" fill="#000000" fill-rule="nonzero" opacity="1" stroke="none"/>
</g>
</g>
</svg>
