<?xml version="1.0" encoding="UTF-8" standalone="no"?>
<!DOCTYPE svg PUBLIC "-//W3C//DTD SVG 1.1//EN" "http://www.w3.org/Graphics/SVG/1.1/DTD/svg11.dtd">
<!-- Created with Vectornator (http://vectornator.io/) -->
<svg height="100.0pt" stroke-miterlimit="10" style="fill-rule:nonzero;clip-rule:evenodd;stroke-linecap:round;stroke-linejoin:round;" version="1.1" viewBox="0 0 100 100" width="100.0pt" xml:space="preserve" xmlns="http://www.w3.org/2000/svg" xmlns:xlink="http://www.w3.org/1999/xlink">
<defs/>
<g id="Layer-1">
<path d="M11.6885 31.0523C11.6753 31.0435 11.6665 31.0303 11.6533 31.0127C8.95518 28.319 7.58841 24.5672 7.91469 20.7713C8.24535 16.971 10.2337 13.5101 13.3506 11.3146C13.3638 11.3058 13.3815 11.3014 13.3903 11.2926C35.4166-3.78476 64.7248-3.78025 86.6766 11.4028C86.6854 11.4072 86.6898 11.4116 86.703 11.416C89.7892 13.5895 91.7643 17.0194 92.086 20.7801C92.399 24.4394 91.1293 28.0545 88.6208 30.6864C88.5106 30.8407 88.396 30.9906 88.2725 31.1361L59.6246 93.819C57.9008 97.5839 54.1401 100 50.0004 100C45.8607 100 42.1 97.5841 40.3763 93.819L11.6885 31.0523ZM82.5889 26.9169C82.7212 26.7847 82.8446 26.648 82.9504 26.4893C83.0827 26.2909 83.2326 26.1101 83.3957 25.9426C84.5993 24.7434 85.2033 23.0769 85.0578 21.3884C84.9123 19.7042 84.0306 18.17 82.6507 17.1912C63.1029 3.68269 37.0113 3.68269 17.3754 17.1075C15.9822 18.1082 15.0873 19.6645 14.9419 21.375C14.792 23.1032 15.418 24.8006 16.6392 26.0262C16.8464 26.2334 17.0492 26.445 17.2696 26.6302C17.3225 26.6699 17.371 26.7096 17.4283 26.7404C17.6311 26.8771 17.8251 27.0314 18.0015 27.2122C19.959 29.1697 23.0318 29.4342 25.3199 27.8735C26.1356 27.3136 26.9688 26.7933 27.8108 26.2996C41.4695 18.3287 58.496 18.3111 72.114 26.304C73.0045 26.8331 73.8819 27.3885 74.7459 27.9793C77.0781 29.5885 80.2172 29.2976 82.2143 27.3004C82.3377 27.1726 82.4656 27.0491 82.589 26.9169L82.5889 26.9169ZM12.7777 32.0663C12.4029 31.7577 12.0546 31.4226 11.7152 31.0788C12.1075 31.7797 12.7248 32.3087 13.4478 32.6086C13.3905 32.5601 13.3332 32.5028 13.2759 32.4499C13.104 32.3309 12.9408 32.1986 12.7777 32.0663ZM21.6744 35.9328L25.8406 45.0411C27.5953 43.6877 29.7996 42.8764 32.1892 42.8764C37.9292 42.8764 42.5937 47.5408 42.5937 53.281C42.5937 58.3113 39.0139 62.5128 34.2613 63.4784L46.7947 90.8871C47.3679 92.1436 48.6199 92.9503 49.9998 92.9503C51.3797 92.9503 52.6362 92.1435 53.2049 90.8871L57.4814 81.5451C53.0242 80.3679 49.7308 76.312 49.7308 71.4844C49.7308 65.7443 54.3952 61.0798 60.1354 61.0798C62.3134 61.0798 64.3326 61.7499 65.999 62.8918L78.2638 36.0644C75.6582 36.1084 73.0219 35.3634 70.7469 33.7939C70.0239 33.2957 69.292 32.824 68.5382 32.3875C65.7828 30.7695 62.8598 29.5439 59.8487 28.7107C60.3204 29.8922 60.5805 31.1883 60.5805 32.5374C60.5805 38.2864 55.9205 42.9464 50.1804 42.9464C44.4314 42.9464 39.7714 38.2864 39.7714 32.5374C39.7714 31.1398 40.0448 29.8084 40.5474 28.5872C37.3687 29.4248 34.2782 30.6946 31.3685 32.3919C30.6675 32.8019 29.9709 33.234 29.2964 33.7013C26.9818 35.2752 24.3101 36.0071 21.6738 35.9322L21.6744 35.9328ZM29.0546 52.0857L31.0429 56.4327C31.4044 56.5605 31.788 56.6311 32.1892 56.6311C34.0364 56.6311 35.5398 55.1322 35.5398 53.2804C35.5398 51.4332 34.0365 49.9297 32.1892 49.9297C30.7608 49.9297 29.5395 50.8247 29.0546 52.0857ZM60.5546 74.8128L62.9265 69.6238C62.327 68.7288 61.2997 68.138 60.1358 68.138C58.293 68.138 56.7896 69.6326 56.7896 71.4842C56.7896 73.3358 58.293 74.8348 60.1358 74.8348C60.2813 74.8348 60.4179 74.826 60.5546 74.8128ZM57.0541 53.0822C55.1098 53.0822 53.5271 51.4996 53.5271 49.5509C53.5271 47.6066 55.1098 46.0239 57.0541 46.0239L64.108 46.0239C66.0567 46.0239 67.6349 47.6066 67.6349 49.5509C67.6349 51.4996 66.0567 53.0822 64.108 53.0822L57.0541 53.0822ZM50.1809 29.1915C48.3293 29.1915 46.8259 30.6948 46.8259 32.5376C46.8259 34.3892 48.3292 35.8927 50.1809 35.8927C52.0238 35.8927 53.5271 34.3894 53.5271 32.5376C53.5271 30.6948 52.0238 29.1915 50.1809 29.1915Z" fill="#000000" fill-rule="evenodd" opacity="1" stroke="none"/>
</g>
</svg>
