<?xml version="1.0" encoding="UTF-8" standalone="no"?>
<!DOCTYPE svg PUBLIC "-//W3C//DTD SVG 1.1//EN" "http://www.w3.org/Graphics/SVG/1.1/DTD/svg11.dtd">
<svg height="200.0pt" stroke-miterlimit="10" style="fill-rule:nonzero;clip-rule:evenodd;stroke-linecap:round;stroke-linejoin:round;" version="1.1" viewBox="0 0 200 200" width="200.0pt" xml:space="preserve" xmlns="http://www.w3.org/2000/svg" xmlns:xlink="http://www.w3.org/1999/xlink">
<defs/>
<g id="Layer-1">
<path d="M33.3333 153.335L39.8958 153.335C41.088 153.335 42.2748 153.175 43.4245 152.86L94.6667 138.793L94.6667 154.14L94.7049 154.129C94.8911 159.684 98.5123 164.536 103.784 166.296L142.849 179.318C144.209 179.771 145.632 180.002 147.065 180.002L170.622 180.002C172.415 180.002 174.088 179.101 175.075 177.604C176.062 176.107 176.23 174.214 175.523 172.567L169.604 158.754L175.122 147.719C175.949 146.066 175.86 144.102 174.888 142.53C173.916 140.958 172.2 140.002 170.352 140.002L149.313 140.002C148.939 139.982 148.567 139.936 148.199 139.864L172.977 133.257C177.116 132.149 179.996 128.4 180 124.115L180 92.3948C180 85.0875 177.779 79.3388 173.747 76.2047C170.808 73.9187 166.963 73.1537 163.372 74.1409L155.626 76.1155C157.629 71.2774 158.662 66.0931 158.667 60.857L158.667 50.6682C158.674 36.1864 148.545 23.6754 134.378 20.6692C120.212 17.663 105.875 24.9819 100 38.2186C94.1253 24.9819 79.7879 17.663 65.6216 20.6692C51.4552 23.6754 41.3259 36.1864 41.3333 50.6682L41.3333 60.857C41.3228 69.6575 44.2292 78.2134 49.5981 85.1866L27.6927 90.663C23.3624 91.7481 20.2545 95.5423 20.0433 100.002L20 100.002L20 140.002C20.0086 147.362 25.9731 153.326 33.3333 153.335ZM146.078 144.935C147.136 145.201 148.222 145.335 149.313 145.335L170.352 145.335L164.831 156.374C164.13 157.776 164.084 159.416 164.703 160.856L170.622 174.668L147.065 174.668C146.205 174.668 145.35 174.53 144.534 174.258L105.471 161.236C102.202 160.151 99.9968 157.092 100 153.647L100 152.717L137.356 142.756L146.078 144.935ZM174.667 124.115C174.665 125.985 173.408 127.62 171.602 128.103L100 147.197L100 137.328L168.31 118.577C169.822 118.162 171.441 118.477 172.688 119.428C173.935 120.378 174.667 121.857 174.667 123.425L174.667 124.115ZM164.69 79.3101C166.685 78.7312 168.836 79.1427 170.477 80.4168C173.177 82.5171 174.667 86.771 174.667 92.3947L174.667 114.438C172.313 113.085 169.518 112.724 166.898 113.434L42.0131 147.716C41.3232 147.906 40.6111 148.001 39.8958 148.002L33.3333 148.002C28.9171 147.997 25.3382 144.418 25.3333 140.002L25.3333 109.395C26.8073 110.219 28.4653 110.657 30.1537 110.668L39.9947 110.668C41.1056 110.668 42.2123 110.529 43.2889 110.255L164.69 79.3101ZM46.6667 50.6682C46.6667 36.677 58.0088 25.3348 72 25.3348C85.9912 25.3348 97.3333 36.677 97.3333 50.6682L97.3333 54.6682L102.667 54.6682L102.667 50.6682C102.667 36.677 114.009 25.3348 128 25.3348C141.991 25.3348 153.333 36.677 153.333 50.6682L153.333 60.857C153.327 66.8073 151.788 72.6557 148.866 77.8388L71.5579 97.5455L59.5208 87.8023C51.3725 81.2339 46.6446 71.3231 46.6667 60.857L46.6667 50.6682ZM28.9844 95.8375L53.6523 89.6704C54.4661 90.4506 55.2806 91.231 56.1666 91.9481L65.1118 99.1887L41.9714 105.087C41.3253 105.252 40.6613 105.335 39.9947 105.335L30.1537 105.335C27.7192 105.335 25.6669 103.519 25.3694 101.103C25.072 98.687 26.6227 96.4281 28.9844 95.8375Z" fill="#000000" fill-rule="nonzero" opacity="1" stroke="none"/>
</g>
</svg>
