<svg xmlns="http://www.w3.org/2000/svg" width="1000pt" height="1000pt" viewBox="0 0 1000 1000" version="1.1">
<path style=" stroke:none;fill-rule:nonzero;fill:rgb(100%,100%,100%);fill-opacity:1;" d="M 333.324219 500.308594 C 333.164063 408.273438 407.652344 333.511719 499.667969 333.347656 C 591.699219 333.171875 666.480469 407.625 666.65625 499.675781 C 666.835938 591.726563 592.347656 666.472656 500.300781 666.652344 C 408.285156 666.828125 333.503906 592.355469 333.324219 500.308594 M 243.269531 500.484375 C 243.546875 642.285156 358.710938 756.984375 500.476563 756.710938 C 642.261719 756.433594 757.019531 641.296875 756.746094 499.496094 C 756.472656 357.746094 641.289063 242.980469 499.488281 243.257813 C 357.722656 243.535156 242.996094 358.71875 243.269531 500.484375 M 706.363281 232.730469 C 706.429688 265.839844 733.351563 292.652344 766.46875 292.589844 C 799.59375 292.523438 826.40625 265.613281 826.359375 232.503906 C 826.292969 199.390625 799.367188 172.5625 766.238281 172.625 C 733.109375 172.691406 706.300781 199.613281 706.363281 232.730469 M 298.757813 907.339844 C 250.007813 905.214844 223.539063 897.117188 205.898438 890.328125 C 182.535156 881.289063 165.867188 870.453125 148.320313 853.035156 C 130.808594 835.554688 119.9375 818.933594 110.820313 795.621094 C 103.964844 777.980469 95.722656 751.539063 93.4375 702.796875 C 90.957031 650.09375 90.390625 634.285156 90.148438 500.777344 C 89.890625 367.304688 90.375 351.492188 92.675781 298.746094 C 94.765625 250.03125 102.914063 223.527344 109.683594 205.898438 C 118.722656 182.507813 129.53125 165.871094 146.976563 148.324219 C 164.457031 130.78125 181.078125 119.941406 204.40625 110.820313 C 222.03125 103.9375 248.472656 95.753906 297.199219 93.4375 C 349.929688 90.941406 365.726563 90.410156 499.199219 90.148438 C 632.703125 89.890625 648.511719 90.359375 701.261719 92.679688 C 749.972656 94.800781 776.476563 102.867188 794.089844 109.6875 C 817.464844 118.726563 834.132813 129.5 851.664063 146.980469 C 869.191406 164.460938 880.0625 181.050781 889.179688 204.425781 C 896.066406 222.003906 904.246094 248.476563 906.550781 297.1875 C 909.058594 349.921875 909.628906 365.730469 909.867188 499.203125 C 910.128906 632.710938 909.640625 648.523438 907.324219 701.238281 C 905.203125 749.984375 897.121094 776.472656 890.316406 794.132813 C 881.277344 817.476563 870.472656 834.144531 853.007813 851.691406 C 835.542969 869.171875 818.921875 880.074219 795.578125 889.195313 C 777.984375 896.0625 751.515625 904.261719 702.816406 906.578125 C 650.085938 909.054688 634.289063 909.621094 500.769531 909.867188 C 367.296875 910.125 351.503906 909.621094 298.757813 907.339844 M 292.921875 3.460938 C 239.722656 5.972656 203.386719 14.496094 171.632813 26.9375 C 138.765625 39.75 110.898438 56.921875 83.183594 84.753906 C 55.429688 112.605469 38.390625 140.515625 25.671875 173.417969 C 13.359375 205.253906 5.015625 241.605469 2.667969 294.839844 C 0.335938 348.171875 -0.199219 365.183594 0.0585938 500.953125 C 0.320313 636.714844 0.917969 653.753906 3.460938 707.105469 C 6.003906 760.289063 14.492188 796.609375 26.933594 828.378906 C 39.765625 861.246094 56.921875 889.097656 84.769531 916.832031 C 112.601563 944.566406 140.53125 961.59375 173.449219 974.328125 C 205.25 986.621094 241.617188 994.996094 294.835938 997.332031 C 348.164063 999.679688 365.191406 1000.199219 500.933594 999.9375 C 636.734375 999.679688 653.761719 999.082031 707.09375 996.554688 C 760.296875 994.007813 796.597656 985.488281 828.382813 973.078125 C 861.253906 960.214844 889.117188 943.09375 916.835938 915.246094 C 944.554688 887.410156 961.597656 859.484375 974.3125 826.5625 C 986.625 794.765625 995 758.394531 997.316406 705.210938 C 999.648438 651.84375 1000.199219 634.800781 999.941406 499.042969 C 999.679688 363.269531 999.066406 346.257813 996.539063 292.945313 C 994.011719 239.710938 985.492188 203.40625 973.066406 171.621094 C 960.21875 138.75 943.078125 110.917969 915.246094 83.167969 C 887.414063 55.449219 859.488281 38.371094 826.570313 25.6875 C 794.753906 13.378906 758.398438 4.984375 705.179688 2.683594 C 651.851563 0.320313 634.824219 -0.199219 499.035156 0.0625 C 363.28125 0.320313 346.253906 0.902344 292.921875 3.460938 "/>
</svg>