<?xml version="1.0" encoding="UTF-8"?>
<svg xmlns="http://www.w3.org/2000/svg" xmlns:xlink="http://www.w3.org/1999/xlink" width="176pt" height="124pt" viewBox="0 0 176 124" version="1.1">
<g id="surface1">
<path style=" stroke:none;fill-rule:nonzero;fill:rgb(100%,100%,100%);fill-opacity:1;" d="M 70 88.167969 L 70 35.832031 L 116 62 Z M 172.320313 19.363281 C 170.296875 11.742188 164.335938 5.738281 156.761719 3.703125 C 143.035156 0 88 0 88 0 C 88 0 32.964844 0 19.238281 3.703125 C 11.664063 5.738281 5.703125 11.742188 3.679688 19.363281 C 0 33.175781 0 62 0 62 C 0 62 0 90.820313 3.679688 104.636719 C 5.703125 112.257813 11.664063 118.261719 19.238281 120.300781 C 32.964844 124 88 124 88 124 C 88 124 143.035156 124 156.761719 120.300781 C 164.335938 118.261719 170.296875 112.257813 172.320313 104.636719 C 176 90.820313 176 62 176 62 C 176 62 176 33.175781 172.320313 19.363281 "/>
</g>
</svg>
